<svg xmlns="http://www.w3.org/2000/svg" viewBox="0 0 900 900">
  <defs>
    <filter id="softGlow" x="-50%" y="-50%" width="200%" height="200%">
      <feGaussianBlur stdDeviation="7" result="blur"/>
      <feMerge>
        <feMergeNode in="blur"/>
        <feMergeNode in="SourceGraphic"/>
      </feMerge>
    </filter>
    <linearGradient id="gold" x1="0" y1="0" x2="1" y2="1">
      <stop offset="0" stop-color="#fff9b8"/>
      <stop offset="0.55" stop-color="#ffd166"/>
      <stop offset="1" stop-color="#ff9f1c"/>
    </linearGradient>
  </defs>
  <g fill="none" stroke="url(#gold)" stroke-linecap="round" filter="url(#softGlow)" opacity="0.95">
    <path d="M186 248l22 52 52 22-52 22-22 52-22-52-52-22 52-22z" fill="url(#gold)" stroke="white" stroke-width="8"/>
    <path d="M702 174l16 38 38 16-38 16-16 38-16-38-38-16 38-16z" fill="url(#gold)" stroke="white" stroke-width="7"/>
    <path d="M726 604l20 46 46 20-46 20-20 46-20-46-46-20 46-20z" fill="url(#gold)" stroke="white" stroke-width="8"/>
    <path d="M322 136c60-42 167-56 258-16" stroke-width="18" opacity="0.65"/>
    <path d="M144 596c68 70 182 110 302 96" stroke-width="16" opacity="0.58"/>
    <path d="M610 728c54-20 96-58 126-108" stroke-width="14" opacity="0.5"/>
  </g>
  <g fill="#fff8c9" opacity="0.82" filter="url(#softGlow)">
    <circle cx="270" cy="438" r="9"/>
    <circle cx="596" cy="322" r="7"/>
    <circle cx="482" cy="188" r="6"/>
    <circle cx="156" cy="476" r="6"/>
    <circle cx="764" cy="430" r="8"/>
  </g>
</svg>
